<mxfile host="app.diagrams.net" agent="Mozilla/5.0 (Windows NT 10.0; Win64; x64) AppleWebKit/537.36 (KHTML, like Gecko) Chrome/131.0.0.0 Safari/537.36 Edg/131.0.0.0" version="26.0.4">
  <diagram name="Page-1" id="OyMPtVXUxOT93iMDIVCT">
    <mxGraphModel dx="1042" dy="565" grid="1" gridSize="10" guides="1" tooltips="1" connect="1" arrows="1" fold="1" page="1" pageScale="1" pageWidth="827" pageHeight="1169" math="0" shadow="0">
      <root>
        <mxCell id="0" />
        <mxCell id="1" parent="0" />
        <mxCell id="rL8QJfa5g3Nkp8abvxMX-1" value="start" style="ellipse;whiteSpace=wrap;html=1;" vertex="1" parent="1">
          <mxGeometry x="330" y="20" width="120" height="40" as="geometry" />
        </mxCell>
        <mxCell id="rL8QJfa5g3Nkp8abvxMX-2" value="TAKE number from user" style="shape=parallelogram;perimeter=parallelogramPerimeter;whiteSpace=wrap;html=1;fixedSize=1;" vertex="1" parent="1">
          <mxGeometry x="290" y="90" width="180" height="50" as="geometry" />
        </mxCell>
        <mxCell id="rL8QJfa5g3Nkp8abvxMX-13" style="edgeStyle=orthogonalEdgeStyle;rounded=0;orthogonalLoop=1;jettySize=auto;html=1;exitX=0.5;exitY=1;exitDx=0;exitDy=0;entryX=0.5;entryY=0;entryDx=0;entryDy=0;" edge="1" parent="1" source="rL8QJfa5g3Nkp8abvxMX-3" target="rL8QJfa5g3Nkp8abvxMX-5">
          <mxGeometry relative="1" as="geometry" />
        </mxCell>
        <mxCell id="rL8QJfa5g3Nkp8abvxMX-3" value="REM=number%2" style="rounded=0;whiteSpace=wrap;html=1;" vertex="1" parent="1">
          <mxGeometry x="280" y="170" width="180" height="60" as="geometry" />
        </mxCell>
        <mxCell id="rL8QJfa5g3Nkp8abvxMX-5" value="REM=0" style="rhombus;whiteSpace=wrap;html=1;" vertex="1" parent="1">
          <mxGeometry x="320" y="250" width="80" height="80" as="geometry" />
        </mxCell>
        <mxCell id="rL8QJfa5g3Nkp8abvxMX-7" value="odd" style="shape=parallelogram;perimeter=parallelogramPerimeter;whiteSpace=wrap;html=1;fixedSize=1;" vertex="1" parent="1">
          <mxGeometry x="610" y="390" width="120" height="60" as="geometry" />
        </mxCell>
        <mxCell id="rL8QJfa5g3Nkp8abvxMX-18" style="edgeStyle=orthogonalEdgeStyle;rounded=0;orthogonalLoop=1;jettySize=auto;html=1;entryX=0;entryY=0.5;entryDx=0;entryDy=0;" edge="1" parent="1" source="rL8QJfa5g3Nkp8abvxMX-8" target="rL8QJfa5g3Nkp8abvxMX-9">
          <mxGeometry relative="1" as="geometry">
            <Array as="points">
              <mxPoint x="110" y="540" />
            </Array>
          </mxGeometry>
        </mxCell>
        <mxCell id="rL8QJfa5g3Nkp8abvxMX-8" value="even" style="shape=parallelogram;perimeter=parallelogramPerimeter;whiteSpace=wrap;html=1;fixedSize=1;" vertex="1" parent="1">
          <mxGeometry y="380" width="120" height="60" as="geometry" />
        </mxCell>
        <mxCell id="rL8QJfa5g3Nkp8abvxMX-9" value="stop" style="ellipse;whiteSpace=wrap;html=1;" vertex="1" parent="1">
          <mxGeometry x="300" y="500" width="120" height="80" as="geometry" />
        </mxCell>
        <mxCell id="rL8QJfa5g3Nkp8abvxMX-11" style="edgeStyle=orthogonalEdgeStyle;rounded=0;orthogonalLoop=1;jettySize=auto;html=1;exitX=0.5;exitY=1;exitDx=0;exitDy=0;entryX=0.542;entryY=0.096;entryDx=0;entryDy=0;entryPerimeter=0;" edge="1" parent="1" source="rL8QJfa5g3Nkp8abvxMX-1" target="rL8QJfa5g3Nkp8abvxMX-2">
          <mxGeometry relative="1" as="geometry" />
        </mxCell>
        <mxCell id="rL8QJfa5g3Nkp8abvxMX-12" style="edgeStyle=orthogonalEdgeStyle;rounded=0;orthogonalLoop=1;jettySize=auto;html=1;exitX=0.5;exitY=1;exitDx=0;exitDy=0;entryX=0.562;entryY=-0.027;entryDx=0;entryDy=0;entryPerimeter=0;" edge="1" parent="1" source="rL8QJfa5g3Nkp8abvxMX-2" target="rL8QJfa5g3Nkp8abvxMX-3">
          <mxGeometry relative="1" as="geometry" />
        </mxCell>
        <mxCell id="rL8QJfa5g3Nkp8abvxMX-16" style="edgeStyle=orthogonalEdgeStyle;rounded=0;orthogonalLoop=1;jettySize=auto;html=1;exitX=0;exitY=0.5;exitDx=0;exitDy=0;entryX=0.583;entryY=-0.04;entryDx=0;entryDy=0;entryPerimeter=0;" edge="1" parent="1" source="rL8QJfa5g3Nkp8abvxMX-5" target="rL8QJfa5g3Nkp8abvxMX-8">
          <mxGeometry relative="1" as="geometry" />
        </mxCell>
        <mxCell id="rL8QJfa5g3Nkp8abvxMX-17" style="edgeStyle=orthogonalEdgeStyle;rounded=0;orthogonalLoop=1;jettySize=auto;html=1;exitX=1;exitY=0.5;exitDx=0;exitDy=0;entryX=0.657;entryY=0.013;entryDx=0;entryDy=0;entryPerimeter=0;" edge="1" parent="1" source="rL8QJfa5g3Nkp8abvxMX-5" target="rL8QJfa5g3Nkp8abvxMX-7">
          <mxGeometry relative="1" as="geometry" />
        </mxCell>
        <mxCell id="rL8QJfa5g3Nkp8abvxMX-19" style="edgeStyle=orthogonalEdgeStyle;rounded=0;orthogonalLoop=1;jettySize=auto;html=1;entryX=1;entryY=0.625;entryDx=0;entryDy=0;entryPerimeter=0;" edge="1" parent="1" source="rL8QJfa5g3Nkp8abvxMX-7" target="rL8QJfa5g3Nkp8abvxMX-9">
          <mxGeometry relative="1" as="geometry">
            <Array as="points">
              <mxPoint x="670" y="550" />
            </Array>
          </mxGeometry>
        </mxCell>
      </root>
    </mxGraphModel>
  </diagram>
</mxfile>
